Coordinates
version=1
nRows=13
nColumns=22
inDegrees=yes

Units are S.I. units (second, meters, Newtons, ...)
If the header above contains a line with 'inDegrees', this indicates whether rotational values are in degrees (yes) or radians (no).

endheader
time	pelvis_tilt	pelvis_list	pelvis_rotation	pelvis_tx	pelvis_ty	pelvis_tz	hip_flexion_r	hip_adduction_r	hip_rotation_r	knee_angle_r	ankle_angle_r	subtalar_angle_r	hip_flexion_l	hip_adduction_l	hip_rotation_l	knee_angle_l	ankle_angle_l	subtalar_angle_l	lumbar_extension	lumbar_bending	lumbar_rotation
      0.01000000	      0.23357309	      1.16125725	    -30.71202430	     -0.93289605	      0.90034341	     -0.41124458	     -3.05619817	      0.25974801	     -7.35913616	    -10.61072266	     21.24270865	     -6.27425633	     -0.00762821	     -1.95594730	     -6.04752658	    -16.06587093	     18.61616237	     -2.84972573	     -3.63910354	     -2.92865440	      3.31881191
      0.02000000	      0.21135383	      1.17711230	    -30.70590724	     -0.93272832	      0.90028993	     -0.41132981	     -3.04966038	      0.24806141	     -7.39112200	    -10.58189655	     21.23215641	     -6.28377912	      0.02153320	     -1.94709568	     -6.06763725	    -16.07648073	     18.63316892	     -2.84160674	     -3.60706362	     -2.93386681	      3.33318162
      0.03000000	      0.12197299	      1.21875238	    -30.68054432	     -0.93258554	      0.90011416	     -0.41149603	     -2.95098166	      0.24839741	     -7.40970436	    -10.57714547	     21.26252154	     -6.29335670	      0.16346061	     -1.95035106	     -6.04456477	    -16.14453162	     18.68600479	     -2.82684480	     -3.50213279	     -2.92009288	      3.29765314
      0.04000000	      0.09305889	      1.23259118	    -30.68083108	     -0.93240063	      0.90003490	     -0.41161358	     -2.94175943	      0.23951606	     -7.43746491	    -10.54208155	     21.28093527	     -6.29340913	      0.19919440	     -1.94171069	     -6.04416410	    -16.16053370	     18.69876640	     -2.82736315	     -3.47170210	     -2.91863312	      3.32594973
      0.05000000	     -0.01080320	      1.27834762	    -30.65404381	     -0.93227616	      0.89981500	     -0.41181953	     -2.81335292	      0.24077179	     -7.45598161	    -10.56032791	     21.33570215	     -6.28608898	      0.36612906	     -1.94861852	     -6.02133264	    -16.23950698	     18.77783778	     -2.83601233	     -3.36208527	     -2.90200582	      3.29027517
      0.06000000	     -0.08290140	      1.30510864	    -30.64742404	     -0.93214464	      0.89965206	     -0.41197448	     -2.73651158	      0.24349094	     -7.47555494	    -10.55606031	     21.36661560	     -6.28337358	      0.47200761	     -1.95413974	     -6.01082711	    -16.28842953	     18.82082707	     -2.84777797	     -3.29592810	     -2.89095803	      3.29778284
      0.07000000	     -0.09749835	      1.30546073	    -30.65400794	     -0.93200651	      0.89958829	     -0.41210526	     -2.73064834	      0.23868731	     -7.47912844	    -10.54786572	     21.36962067	     -6.28333407	      0.48087727	     -1.94960932	     -6.00942181	    -16.28799787	     18.82344248	     -2.84776389	     -3.31046098	     -2.88675258	      3.30089556
      0.08000000	     -0.19495613	      1.33365572	    -30.63745288	     -0.93189511	      0.89937074	     -0.41228412	     -2.62035922	      0.25554303	     -7.48373166	    -10.55858706	     21.44853353	     -6.28418016	      0.62740334	     -1.96855865	     -5.97814719	    -16.36482583	     18.94112381	     -2.85248936	     -3.22597022	     -2.86090655	      3.29462616
      0.09000000	     -0.21071794	      1.33449912	    -30.64312010	     -0.93175930	      0.89930740	     -0.41240773	     -2.61218475	      0.25234978	     -7.48698712	    -10.55184750	     21.44940748	     -6.28470613	      0.63639398	     -1.96468994	     -5.97734469	    -16.36306705	     18.94214412	     -2.85262353	     -3.24358889	     -2.85876043	      3.29722333
      0.10000000	     -0.30894413	      1.36599978	    -30.63191383	     -0.93165883	      0.89909850	     -0.41258429	     -2.48543056	      0.26470273	     -7.48435142	    -10.58749720	     21.50220270	     -6.30938983	      0.77846483	     -1.97981435	     -5.94667273	    -16.42708559	     19.02986649	     -2.85873142	     -3.16405103	     -2.83532887	      3.29005033
      0.11000000	     -0.32528000	      1.36747883	    -30.63645202	     -0.93150685	      0.89904186	     -0.41269860	     -2.47741011	      0.26216656	     -7.48623149	    -10.58081206	     21.50324455	     -6.31017773	      0.78538157	     -1.97531833	     -5.94734096	    -16.42310092	     19.03074364	     -2.85880413	     -3.18406811	     -2.83438343	      3.28993203
      0.12000000	     -0.34283924	      1.36994352	    -30.64126964	     -0.93134017	      0.89898609	     -0.41281544	     -2.46825988	      0.25801479	     -7.48678638	    -10.57444931	     21.50598355	     -6.31119533	      0.79286256	     -1.96993650	     -5.94766024	    -16.41832882	     19.03376854	     -2.85869265	     -3.20456026	     -2.83127910	      3.28800707
      0.13000000	     -0.36121330	      1.37332405	    -30.64627203	     -0.93115245	      0.89893322	     -0.41292839	     -2.45884098	      0.25304729	     -7.48601474	    -10.56907749	     21.50992225	     -6.31245958	      0.79934085	     -1.96346714	     -5.94813998	    -16.41281308	     19.03837341	     -2.85846812	     -3.22391965	     -2.82754057	      3.28386502
